<svg aria-hidden="true" style="position: absolute; width: 0; height: 0; overflow: hidden;" version="1.1" xmlns="http://www.w3.org/2000/svg" xmlns:xlink="http://www.w3.org/1999/xlink">
<defs>
<symbol id="icon-fast_forward" viewBox="0 0 24 24">
<path d="M12.984 6l8.531 6-8.531 6v-12zM3.984 18v-12l8.531 6z"></path>
</symbol>
<symbol id="icon-fast_rewind" viewBox="0 0 24 24">
<path d="M11.484 12l8.531-6v12zM11.016 18l-8.531-6 8.531-6v12z"></path>
</symbol>
<symbol id="icon-pause" viewBox="0 0 24 24">
<path d="M14.016 5.016h3.984v13.969h-3.984v-13.969zM6 18.984v-13.969h3.984v13.969h-3.984z"></path>
</symbol>
<symbol id="icon-play_arrow" viewBox="0 0 24 24">
<path d="M8.016 5.016l10.969 6.984-10.969 6.984v-13.969z"></path>
</symbol>
<symbol id="icon-volume_off" viewBox="0 0 24 24">
<path d="M12 3.984v4.219l-2.109-2.109zM4.266 3l16.734 16.734-1.266 1.266-2.063-2.063q-1.547 1.313-3.656 1.828v-2.063q1.172-0.328 2.25-1.172l-4.266-4.266v6.75l-5.016-5.016h-3.984v-6h4.734l-4.734-4.734zM18.984 12q0-2.391-1.383-4.219t-3.586-2.484v-2.063q3.047 0.656 5.016 3.117t1.969 5.648q0 2.203-1.031 4.172l-1.5-1.547q0.516-1.266 0.516-2.625zM16.5 12q0 0.422-0.047 0.609l-2.438-2.438v-2.203q1.031 0.516 1.758 1.688t0.727 2.344z"></path>
</symbol>
<symbol id="icon-volume_up" viewBox="0 0 24 24">
<path d="M14.016 3.234q3.047 0.656 5.016 3.117t1.969 5.648-1.969 5.648-5.016 3.117v-2.063q2.203-0.656 3.586-2.484t1.383-4.219-1.383-4.219-3.586-2.484v-2.063zM16.5 12q0 2.813-2.484 4.031v-8.063q1.031 0.516 1.758 1.688t0.727 2.344zM3 9h3.984l5.016-5.016v16.031l-5.016-5.016h-3.984v-6z"></path>
</symbol>
<symbol id="icon-clear" viewBox="0 0 24 24">
<path d="M18.984 6.422l-5.578 5.578 5.578 5.578-1.406 1.406-5.578-5.578-5.578 5.578-1.406-1.406 5.578-5.578-5.578-5.578 1.406-1.406 5.578 5.578 5.578-5.578z"></path>
</symbol>
<symbol id="icon-fullscreen" viewBox="0 0 24 24">
<path d="M14.016 5.016h4.969v4.969h-1.969v-3h-3v-1.969zM17.016 17.016v-3h1.969v4.969h-4.969v-1.969h3zM5.016 9.984v-4.969h4.969v1.969h-3v3h-1.969zM6.984 14.016v3h3v1.969h-4.969v-4.969h1.969z"></path>
</symbol>
<symbol id="icon-fullscreen_exit" viewBox="0 0 24 24">
<path d="M15.984 8.016h3v1.969h-4.969v-4.969h1.969v3zM14.016 18.984v-4.969h4.969v1.969h-3v3h-1.969zM8.016 8.016v-3h1.969v4.969h-4.969v-1.969h3zM5.016 15.984v-1.969h4.969v4.969h-1.969v-3h-3z"></path>
</symbol>
<symbol id="icon-launch" viewBox="0 0 24 24">
<path d="M14.016 3h6.984v6.984h-2.016v-3.563l-9.797 9.797-1.406-1.406 9.797-9.797h-3.563v-2.016zM18.984 18.984v-6.984h2.016v6.984q0 0.797-0.609 1.406t-1.406 0.609h-13.969q-0.844 0-1.43-0.586t-0.586-1.43v-13.969q0-0.844 0.586-1.43t1.43-0.586h6.984v2.016h-6.984v13.969h13.969z"></path>
</symbol>
<symbol id="icon-resize-100" viewBox="0 0 20 20">
<path d="M4.1 14.1l-3.1 2.9 2 2 2.9-3.1 2.1 2.1v-6h-6l2.1 2.1zM19 3l-2-2-2.9 3.1-2.1-2.1v6h6l-2.1-2.1 3.1-2.9z"></path>
</symbol>
<symbol id="icon-resize-full-screen" viewBox="0 0 20 20">
<path d="M6.987 10.987l-2.931 3.031-2.056-2.429v6.411h6.387l-2.43-2.081 3.030-2.932-2-2zM11.613 2l2.43 2.081-3.030 2.932 2 2 2.931-3.031 2.056 2.429v-6.411h-6.387z"></path>
</symbol>
</defs>
</svg>
