<?xml version="1.0" encoding="utf-8"?>
<svg xmlns="http://www.w3.org/2000/svg">
<symbol id="community" viewBox="0 0 24 24"><path fill="none" d="M0 0h24v24H0z"/><path d="M21 21H3a1 1 0 0 1-1-1v-7.513a1 1 0 0 1 .343-.754L6 8.544V4a1 1 0 0 1 1-1h14a1 1 0 0 1 1 1v16a1 1 0 0 1-1 1zM9 19h3v-6.058L8 9.454l-4 3.488V19h3v-4h2v4zm5 0h6V5H8v2.127c.234 0 .469.082.657.247l5 4.359a1 1 0 0 1 .343.754V19zm2-8h2v2h-2v-2zm0 4h2v2h-2v-2zm0-8h2v2h-2V7zm-4 0h2v2h-2V7z"/>
</symbol>
<symbol id="envelope" viewBox="0 0 16 16">
  <path d="M.05 3.555A2 2 0 0 1 2 2h12a2 2 0 0 1 1.95 1.555L8 8.414.05 3.555ZM0 4.697v7.104l5.803-3.558L0 4.697ZM6.761 8.83l-6.57 4.027A2 2 0 0 0 2 14h12a2 2 0 0 0 1.808-1.144l-6.57-4.027L8 9.586l-1.239-.757Zm3.436-.586L16 11.801V4.697l-5.803 3.546Z"/>
</symbol>
<symbol id="home" viewBox="0 0 24 24"><path fill="none" d="M0 0h24v24H0z"/><path d="M20 20a1 1 0 0 1-1 1H5a1 1 0 0 1-1-1v-9H1l10.327-9.388a1 1 0 0 1 1.346 0L23 11h-3v9z"/>
</symbol>
<symbol id="mastercard" viewBox="0 0 24 24"><path fill="none" d="M0 0h24v24H0z"/><path d="M12 6.654a6.786 6.786 0 0 1 2.596 5.344A6.786 6.786 0 0 1 12 17.34a6.786 6.786 0 0 1-2.596-5.343A6.786 6.786 0 0 1 12 6.654zm-.87-.582A7.783 7.783 0 0 0 8.4 12a7.783 7.783 0 0 0 2.728 5.926 6.798 6.798 0 1 1 .003-11.854zm1.742 11.854A7.783 7.783 0 0 0 15.6 12a7.783 7.783 0 0 0-2.73-5.928 6.798 6.798 0 1 1 .003 11.854z"/>
</symbol>
<symbol id="shopping-cart" viewBox="0 0 24 24"><path fill="none" d="M0 0h24v24H0z"/><path d="M4 6.414L.757 3.172l1.415-1.415L5.414 5h15.242a1 1 0 0 1 .958 1.287l-2.4 8a1 1 0 0 1-.958.713H6v2h11v2H5a1 1 0 0 1-1-1V6.414zM5.5 23a1.5 1.5 0 1 1 0-3 1.5 1.5 0 0 1 0 3zm12 0a1.5 1.5 0 1 1 0-3 1.5 1.5 0 0 1 0 3z"/>
</symbol>
<symbol id="user" viewBox="0 0 16 16">
  <path d="M3 14s-1 0-1-1 1-4 6-4 6 3 6 4-1 1-1 1H3zm5-6a3 3 0 1 0 0-6 3 3 0 0 0 0 6z"/>
</symbol>
<symbol id="visa" viewBox="0 0 24 24"><path fill="none" d="M0 0h24v24H0z"/><path d="M22.222 15.768l-.225-1.125h-2.514l-.4 1.117-2.015.004a4199.19 4199.19 0 0 1 2.884-6.918c.164-.391.455-.59.884-.588.328.003.863.003 1.606.001L24 15.765l-1.778.003zm-2.173-2.666h1.62l-.605-2.82-1.015 2.82zM7.06 8.257l2.026.002-3.132 7.51-2.051-.002a950.849 950.849 0 0 1-1.528-5.956c-.1-.396-.298-.673-.679-.804C1.357 8.89.792 8.71 0 8.465V8.26h3.237c.56 0 .887.271.992.827.106.557.372 1.975.8 4.254L7.06 8.257zm4.81.002l-1.602 7.508-1.928-.002L9.94 8.257l1.93.002zm3.91-.139c.577 0 1.304.18 1.722.345l-.338 1.557c-.378-.152-1-.357-1.523-.35-.76.013-1.23.332-1.23.638 0 .498.816.749 1.656 1.293.959.62 1.085 1.177 1.073 1.782-.013 1.256-1.073 2.495-3.309 2.495-1.02-.015-1.388-.101-2.22-.396l.352-1.625c.847.355 1.206.468 1.93.468.663 0 1.232-.268 1.237-.735.004-.332-.2-.497-.944-.907-.744-.411-1.788-.98-1.774-2.122.017-1.462 1.402-2.443 3.369-2.443z"/>
</symbol></svg>