<svg aria-hidden="true" style="position: absolute; width: 0; height: 0; overflow: hidden;" version="1.1" xmlns="http://www.w3.org/2000/svg" xmlns:xlink="http://www.w3.org/1999/xlink">
<defs>
<symbol id="icon-how_to_reg" viewBox="0 0 24 24">
<path d="M15.469 20.484l-3.469-3.469 1.406-1.406 2.063 2.063 5.109-5.156 1.406 1.406zM11.016 12q-1.641 0-2.836-1.172t-1.195-2.813 1.195-2.836 2.836-1.195 2.813 1.195 1.172 2.836-1.172 2.813-2.813 1.172zM9 17.016l3 3h-9v-2.016q0-1.781 2.742-2.883t5.273-1.102q0.703 0 0.984 0.047z"></path>
</symbol>
<symbol id="icon-format_list_bulleted" viewBox="0 0 24 24">
<path d="M6.984 5.016h14.016v1.969h-14.016v-1.969zM6.984 12.984v-1.969h14.016v1.969h-14.016zM6.984 18.984v-1.969h14.016v1.969h-14.016zM3.984 16.5q0.609 0 1.055 0.445t0.445 1.055-0.445 1.055-1.055 0.445-1.055-0.445-0.445-1.055 0.445-1.055 1.055-0.445zM3.984 4.5q0.609 0 1.055 0.422t0.445 1.078-0.445 1.078-1.055 0.422-1.055-0.422-0.445-1.078 0.445-1.078 1.055-0.422zM3.984 10.5q0.609 0 1.055 0.422t0.445 1.078-0.445 1.078-1.055 0.422-1.055-0.422-0.445-1.078 0.445-1.078 1.055-0.422z"></path>
</symbol>
<symbol id="icon-ondemand_video" viewBox="0 0 24 24">
<path d="M15.984 11.016l-6.984 3.984v-8.016zM21 17.016v-12h-18v12h18zM21 3q0.844 0 1.43 0.586t0.586 1.43l-0.047 12q0 0.797-0.586 1.383t-1.383 0.586h-5.016v2.016h-7.969v-2.016h-5.016q-0.844 0-1.43-0.563t-0.586-1.406v-12q0-0.844 0.586-1.43t1.43-0.586h18z"></path>
</symbol>
<symbol id="icon-school" viewBox="0 0 24 24">
<path d="M12 3l11.016 6v8.016h-2.016v-6.938l-9 4.922-11.016-6zM5.016 13.172l6.984 3.844 6.984-3.844v4.031l-6.984 3.797-6.984-3.797v-4.031z"></path>
</symbol>
<symbol id="icon-graduation-cap" viewBox="0 0 20 20">
<path d="M3.302 12.238c0.464 1.879 1.054 2.701 3.022 3.562 1.969 0.86 2.904 1.8 3.676 1.8s1.648-0.822 3.616-1.684c1.969-0.861 1.443-1.123 1.907-3.002l-5.523 2.686-6.698-3.362zM19.511 7.336l-8.325-4.662c-0.652-0.365-1.72-0.365-2.372 0l-8.326 4.662c-0.652 0.365-0.652 0.963 0 1.328l8.325 4.662c0.652 0.365 1.72 0.365 2.372 0l5.382-3.014-5.836-1.367c-0.225 0.055-0.472 0.086-0.731 0.086-1.052 0-1.904-0.506-1.904-1.131 0-0.627 0.853-1.133 1.904-1.133 0.816 0 1.51 0.307 1.78 0.734l6.182 2.029 1.549-0.867c0.651-0.364 0.651-0.962 0-1.327zM16.967 16.17c-0.065 0.385 1.283 1.018 1.411-0.107 0.579-5.072-0.416-6.531-0.416-6.531l-1.395 0.781c0-0.001 1.183 1.125 0.4 5.857z"></path>
</symbol>
<symbol id="icon-star" viewBox="0 0 20 20">
<path d="M10 1.3l2.388 6.722h6.412l-5.232 3.948 1.871 6.928-5.439-4.154-5.438 4.154 1.87-6.928-5.233-3.948h6.412l2.389-6.722z"></path>
</symbol>
</defs>
</svg>
