<svg aria-hidden="true" style="position: absolute; width: 0; height: 0; overflow: hidden;" version="1.1" xmlns="http://www.w3.org/2000/svg" xmlns:xlink="http://www.w3.org/1999/xlink">
<defs>
<symbol id="icon-rotate-cw" viewBox="0 0 24 24">
<path d="M19.547 14.667c-0.736 2.083-2.245 3.67-4.094 4.553s-4.031 1.061-6.114 0.325-3.67-2.245-4.553-4.094-1.061-4.031-0.325-6.114 2.245-3.67 4.094-4.553 4.031-1.061 6.114-0.325c1.188 0.42 2.209 1.088 2.987 1.882l2.824 2.659h-3.48c-0.552 0-1 0.448-1 1s0.448 1 1 1h5.997c0.004 0 0.009 0 0.013 0 0.137-0.001 0.267-0.030 0.386-0.082 0.119-0.051 0.229-0.126 0.324-0.225 0.012-0.012 0.023-0.025 0.034-0.038 0.076-0.087 0.134-0.184 0.175-0.287s0.065-0.213 0.069-0.328c0.002-0.014 0.002-0.028 0.002-0.042v-5.998c0-0.552-0.448-1-1-1s-1 0.448-1 1v3.685l-2.916-2.745c-0.993-1.012-2.274-1.846-3.748-2.366-2.604-0.921-5.336-0.698-7.644 0.405s-4.197 3.088-5.117 5.692-0.696 5.335 0.406 7.643 3.088 4.197 5.692 5.117 5.335 0.697 7.643-0.406 4.197-3.088 5.117-5.692c0.184-0.521-0.089-1.092-0.61-1.276s-1.092 0.089-1.276 0.61z"></path>
</symbol>
<symbol id="icon-rotate-ccw" viewBox="0 0 24 24">
<path d="M2.567 15.332c0.918 2.604 2.805 4.591 5.112 5.696s5.038 1.33 7.643 0.413 4.591-2.805 5.696-5.112 1.33-5.038 0.413-7.643-2.805-4.591-5.112-5.696-5.038-1.33-7.643-0.413c-1.474 0.52-2.755 1.352-3.749 2.362l-2.927 2.75v-3.689c0-0.552-0.448-1-1-1s-1 0.448-1 1v5.998c0 0.015 0 0.030 0.001 0.044 0.005 0.115 0.029 0.225 0.069 0.326 0.040 0.102 0.098 0.198 0.173 0.285 0.012 0.013 0.024 0.027 0.036 0.039 0.091 0.095 0.201 0.172 0.324 0.225 0.119 0.051 0.249 0.080 0.386 0.082 0.004 0 0.007 0 0.011 0h6c0.552 0 1-0.448 1-1s-0.448-0.999-1-0.999h-3.476l2.829-2.659c0.779-0.792 1.8-1.459 2.987-1.877 2.084-0.734 4.266-0.555 6.114 0.33s3.356 2.473 4.090 4.557 0.555 4.266-0.33 6.114-2.473 3.356-4.557 4.090-4.266 0.555-6.114-0.33-3.356-2.473-4.090-4.557c-0.184-0.521-0.755-0.794-1.275-0.611s-0.794 0.755-0.611 1.275z"></path>
</symbol>
<symbol id="icon-link_off" viewBox="0 0 24 24">
<path d="M2.016 4.266l1.266-1.266 16.734 16.734-1.266 1.266-4.031-3.984h-1.734v-1.734l-2.25-2.297h-2.719v-1.969h0.703l-2.063-2.063q-1.172 0.141-1.969 1.008t-0.797 2.039q0 1.266 0.914 2.18t2.18 0.914h4.031v1.922h-4.031q-2.063 0-3.516-1.477t-1.453-3.539q0-1.406 0.891-2.766t2.203-1.875zM15.984 11.016v1.969h-0.188l-1.969-1.969h2.156zM17.016 6.984q2.063 0 3.516 1.477t1.453 3.539q0 3.047-2.719 4.453l-1.453-1.453q0.984-0.234 1.641-1.078t0.656-1.922q0-1.266-0.914-2.18t-2.18-0.914h-4.031v-1.922h4.031z"></path>
</symbol>
<symbol id="icon-format_align_center" viewBox="0 0 24 24">
<path d="M3 3h18v2.016h-18v-2.016zM6.984 6.984h10.031v2.016h-10.031v-2.016zM3 12.984v-1.969h18v1.969h-18zM3 21v-2.016h18v2.016h-18zM6.984 15h10.031v2.016h-10.031v-2.016z"></path>
</symbol>
<symbol id="icon-format_align_justify" viewBox="0 0 24 24">
<path d="M3 3h18v2.016h-18v-2.016zM3 9v-2.016h18v2.016h-18zM3 12.984v-1.969h18v1.969h-18zM3 17.016v-2.016h18v2.016h-18zM3 21v-2.016h18v2.016h-18z"></path>
</symbol>
<symbol id="icon-format_align_left" viewBox="0 0 24 24">
<path d="M3 3h18v2.016h-18v-2.016zM3 21v-2.016h18v2.016h-18zM3 12.984v-1.969h18v1.969h-18zM15 6.984v2.016h-12v-2.016h12zM15 15v2.016h-12v-2.016h12z"></path>
</symbol>
<symbol id="icon-format_align_right" viewBox="0 0 24 24">
<path d="M3 3h18v2.016h-18v-2.016zM9 9v-2.016h12v2.016h-12zM3 12.984v-1.969h18v1.969h-18zM9 17.016v-2.016h12v2.016h-12zM3 21v-2.016h18v2.016h-18z"></path>
</symbol>
<symbol id="icon-format_bold" viewBox="0 0 24 24">
<path d="M13.5 15.516q0.656 0 1.078-0.445t0.422-1.055-0.422-1.055-1.078-0.445h-3.516v3h3.516zM9.984 6.516v3h3q0.609 0 1.055-0.445t0.445-1.055-0.445-1.055-1.055-0.445h-3zM15.609 10.781q2.156 0.984 2.156 3.422 0 1.594-1.055 2.695t-2.648 1.102h-7.078v-14.016h6.281q1.688 0 2.836 1.172t1.148 2.859-1.641 2.766z"></path>
</symbol>
<symbol id="icon-format_indent_decrease" viewBox="0 0 24 24">
<path d="M11.016 12.984v-1.969h9.984v1.969h-9.984zM11.016 9v-2.016h9.984v2.016h-9.984zM3 3h18v2.016h-18v-2.016zM3 21v-2.016h18v2.016h-18zM3 12l3.984-3.984v7.969zM11.016 17.016v-2.016h9.984v2.016h-9.984z"></path>
</symbol>
<symbol id="icon-format_indent_increase" viewBox="0 0 24 24">
<path d="M11.016 12.984v-1.969h9.984v1.969h-9.984zM11.016 9v-2.016h9.984v2.016h-9.984zM3 3h18v2.016h-18v-2.016zM11.016 17.016v-2.016h9.984v2.016h-9.984zM3 8.016l3.984 3.984-3.984 3.984v-7.969zM3 21v-2.016h18v2.016h-18z"></path>
</symbol>
<symbol id="icon-format_italic" viewBox="0 0 24 24">
<path d="M9.984 3.984h8.016v3h-2.813l-3.375 8.016h2.203v3h-8.016v-3h2.813l3.375-8.016h-2.203v-3z"></path>
</symbol>
<symbol id="icon-format_list_bulleted" viewBox="0 0 24 24">
<path d="M6.984 5.016h14.016v1.969h-14.016v-1.969zM6.984 12.984v-1.969h14.016v1.969h-14.016zM6.984 18.984v-1.969h14.016v1.969h-14.016zM3.984 16.5q0.609 0 1.055 0.445t0.445 1.055-0.445 1.055-1.055 0.445-1.055-0.445-0.445-1.055 0.445-1.055 1.055-0.445zM3.984 4.5q0.609 0 1.055 0.422t0.445 1.078-0.445 1.078-1.055 0.422-1.055-0.422-0.445-1.078 0.445-1.078 1.055-0.422zM3.984 10.5q0.609 0 1.055 0.422t0.445 1.078-0.445 1.078-1.055 0.422-1.055-0.422-0.445-1.078 0.445-1.078 1.055-0.422z"></path>
</symbol>
<symbol id="icon-format_list_numbered" viewBox="0 0 24 24">
<path d="M6.984 12.984v-1.969h14.016v1.969h-14.016zM6.984 18.984v-1.969h14.016v1.969h-14.016zM6.984 5.016h14.016v1.969h-14.016v-1.969zM2.016 11.016v-1.031h3v0.938l-1.828 2.063h1.828v1.031h-3v-0.938l1.781-2.063h-1.781zM3 8.016v-3h-0.984v-1.031h1.969v4.031h-0.984zM2.016 17.016v-1.031h3v4.031h-3v-1.031h1.969v-0.469h-0.984v-1.031h0.984v-0.469h-1.969z"></path>
</symbol>
<symbol id="icon-format_underlined" viewBox="0 0 24 24">
<path d="M5.016 18.984h13.969v2.016h-13.969v-2.016zM12 17.016q-2.484 0-4.242-1.758t-1.758-4.242v-8.016h2.484v8.016q0 1.453 1.031 2.461t2.484 1.008 2.484-1.008 1.031-2.461v-8.016h2.484v8.016q0 2.484-1.758 4.242t-4.242 1.758z"></path>
</symbol>
<symbol id="icon-strikethrough_s" viewBox="0 0 24 24">
<path d="M9.375 13.125q0 2.531 2.906 2.531 2.297 0 2.297-1.688 0-0.75-0.305-1.078t-1.102-0.703q-0.047 0-0.164-0.047t-0.211-0.094-0.188-0.047h-9.609v-2.016h18v2.016h-3.891q0 0.047 0.070 0.164t0.117 0.164q0.328 0.797 0.328 1.641 0 2.859-3.141 3.75-0.984 0.281-2.156 0.281-0.75 0-1.453-0.141-1.688-0.328-2.625-1.031-1.828-1.359-1.828-3.703h2.953zM14.578 7.5q0-2.109-2.391-2.109-1.688 0-2.203 1.031-0.141 0.281-0.141 0.656 0 0.703 0.75 1.219 0.75 0.469 1.406 0.703h-4.594q0-0.047-0.094-0.117t-0.094-0.117q-0.375-0.609-0.375-1.688 0-1.734 1.5-2.953 1.453-1.125 3.891-1.125 2.484 0 3.891 1.266 1.453 1.313 1.453 3.234h-3z"></path>
</symbol>
<symbol id="icon-subscript" viewBox="0 0 24 24">
<path d="M21.984 18h-1.969v0.984h3v1.031h-4.031v-2.016q0-0.422 0.305-0.703t0.727-0.281h1.969v-1.031h-3v-0.984h3q0.422 0 0.727 0.305t0.305 0.68v1.031q0 0.375-0.305 0.68t-0.727 0.305zM5.859 18h2.672l3.422-5.438h0.094l3.422 5.438h2.672l-4.688-7.266 4.359-6.75h-2.672l-3.094 5.016h-0.094l-3.094-5.016h-2.672l4.313 6.75z"></path>
</symbol>
<symbol id="icon-superscript" viewBox="0 0 24 24">
<path d="M21.984 6.984h-1.969v1.031h3v0.984h-4.031v-2.016q0-0.375 0.305-0.68t0.727-0.305h1.969v-0.984h-3v-1.031h3q0.422 0 0.727 0.305t0.305 0.727v0.984q0 0.422-0.305 0.703t-0.727 0.281zM5.859 20.016h2.672l3.422-5.438h0.094l3.422 5.438h2.672l-4.688-7.266 4.359-6.75h-2.672l-3.094 4.969h-0.094l-3.094-4.969h-2.672l4.313 6.75z"></path>
</symbol>
<symbol id="icon-link" viewBox="0 0 20 20">
<path d="M7.859 14.691l-0.81 0.805c-0.701 0.695-1.843 0.695-2.545 0-0.336-0.334-0.521-0.779-0.521-1.252s0.186-0.916 0.521-1.252l2.98-2.955c0.617-0.613 1.779-1.515 2.626-0.675 0.389 0.386 1.016 0.384 1.403-0.005 0.385-0.389 0.383-1.017-0.006-1.402-1.438-1.428-3.566-1.164-5.419 0.675l-2.98 2.956c-0.715 0.709-1.108 1.654-1.108 2.658 0 1.006 0.394 1.949 1.108 2.658 0.736 0.73 1.702 1.096 2.669 1.096s1.934-0.365 2.669-1.096l0.811-0.805c0.389-0.385 0.391-1.012 0.005-1.4s-1.014-0.39-1.403-0.006zM16.891 3.207c-1.547-1.534-3.709-1.617-5.139-0.197l-1.009 1.002c-0.389 0.386-0.392 1.013-0.006 1.401 0.386 0.389 1.013 0.391 1.402 0.005l1.010-1.001c0.74-0.736 1.711-0.431 2.346 0.197 0.336 0.335 0.522 0.779 0.522 1.252s-0.186 0.917-0.522 1.251l-3.18 3.154c-1.454 1.441-2.136 0.766-2.427 0.477-0.389-0.386-1.016-0.383-1.401 0.005s-0.384 1.017 0.005 1.401c0.668 0.662 1.43 0.99 2.228 0.99 0.977 0 2.010-0.492 2.993-1.467l3.18-3.153c0.712-0.71 1.107-1.654 1.107-2.658s-0.395-1.949-1.109-2.659z"></path>
</symbol>
</defs>
</svg>
